<svg width="264" height="260" viewBox="0 0 264 260" fill="none" xmlns="http://www.w3.org/2000/svg">
<path fill-rule="evenodd" clip-rule="evenodd" d="M248.654 193.829C258.45 175.385 264 154.341 264 132C264 59.0984 204.902 0 132 0C59.0984 0 0 59.0984 0 132C0 188.967 36.087 237.506 86.648 256.003L87.6426 248.473L110.201 236.9L170.846 85.1426L207.174 78.1113L248.654 193.829ZM217.908 232.222L208.785 206.578H149.459L138.619 237.34L166.012 247.301L164.569 259.952C184.559 254.879 202.73 245.244 217.908 232.222ZM201.461 183.727L180.074 119.859L157.369 183.727H201.461Z" fill="#353535"/>
</svg>
